<?xml version="1.0" encoding="UTF-8" standalone="no"?>
<svg xmlns="http://www.w3.org/2000/svg" width="600" height="200" viewBox="0 0 600 200">
  <!-- 
    ZARIGATA PREMIUM LOGO
    CODEX DESIGN SYSTEM v1.2.5
    CREATED BY ZARI DEVELOPMENT UNIT X99
   -->
  
  <!-- Background glow effect -->
  <defs>
    <filter id="glow" x="-50%" y="-50%" width="200%" height="200%">
      <feGaussianBlur stdDeviation="10" result="blur" />
      <feComposite in="SourceGraphic" in2="blur" operator="over" />
    </filter>
    
    <linearGradient id="textGradient" x1="0%" y1="0%" x2="0%" y2="100%">
      <stop offset="0%" stop-color="#8bac0f" />
      <stop offset="100%" stop-color="#306230" />
    </linearGradient>
  </defs>
  
  <!-- Main logo text with pixel effect -->
  <g transform="translate(30, 120)" filter="url(#glow)">
    <!-- Z -->
    <rect x="0" y="0" width="50" height="10" fill="#8bac0f" />
    <rect x="0" y="60" width="50" height="10" fill="#8bac0f" />
    <rect x="0" y="0" width="10" height="10" fill="#8bac0f" />
    <rect x="40" y="0" width="10" height="70" fill="#8bac0f" />
    <rect x="10" y="25" width="30" height="10" fill="#8bac0f" />
    <rect x="0" y="50" width="40" height="10" fill="#8bac0f" />
    
    <!-- A -->
    <rect x="70" y="0" width="50" height="10" fill="#8bac0f" />
    <rect x="70" y="0" width="10" height="70" fill="#8bac0f" />
    <rect x="110" y="0" width="10" height="70" fill="#8bac0f" />
    <rect x="70" y="30" width="50" height="10" fill="#8bac0f" />
    
    <!-- R -->
    <rect x="140" y="0" width="50" height="10" fill="#8bac0f" />
    <rect x="140" y="0" width="10" height="70" fill="#8bac0f" />
    <rect x="180" y="10" width="10" height="20" fill="#8bac0f" />
    <rect x="140" y="30" width="50" height="10" fill="#8bac0f" />
    <rect x="160" y="40" width="10" height="10" fill="#8bac0f" />
    <rect x="170" y="50" width="10" height="10" fill="#8bac0f" />
    <rect x="180" y="60" width="10" height="10" fill="#8bac0f" />
    
    <!-- I -->
    <rect x="210" y="0" width="30" height="10" fill="#8bac0f" />
    <rect x="210" y="60" width="30" height="10" fill="#8bac0f" />
    <rect x="220" y="10" width="10" height="50" fill="#8bac0f" />
    
    <!-- G -->
    <rect x="260" y="0" width="50" height="10" fill="#8bac0f" />
    <rect x="260" y="60" width="50" height="10" fill="#8bac0f" />
    <rect x="260" y="0" width="10" height="70" fill="#8bac0f" />
    <rect x="300" y="0" width="10" height="20" fill="#8bac0f" />
    <rect x="300" y="40" width="10" height="30" fill="#8bac0f" />
    <rect x="280" y="40" width="20" height="10" fill="#8bac0f" />
    
    <!-- A -->
    <rect x="330" y="0" width="50" height="10" fill="#8bac0f" />
    <rect x="330" y="0" width="10" height="70" fill="#8bac0f" />
    <rect x="370" y="0" width="10" height="70" fill="#8bac0f" />
    <rect x="330" y="30" width="50" height="10" fill="#8bac0f" />
    
    <!-- T -->
    <rect x="400" y="0" width="50" height="10" fill="#8bac0f" />
    <rect x="420" y="10" width="10" height="60" fill="#8bac0f" />
    
    <!-- A -->
    <rect x="470" y="0" width="50" height="10" fill="#8bac0f" />
    <rect x="470" y="0" width="10" height="70" fill="#8bac0f" />
    <rect x="510" y="0" width="10" height="70" fill="#8bac0f" />
    <rect x="470" y="30" width="50" height="10" fill="#8bac0f" />
  </g>
  
  <!-- Tagline -->
  <text x="300" y="180" fill="#306230" font-family="'Press Start 2P', monospace" font-size="16" text-anchor="middle">PREMIUM RETRO EXPERIENCE</text>
</svg>
